<svg width="202" height="416" viewBox="0 0 202 416" fill="none" xmlns="http://www.w3.org/2000/svg">
<g opacity="0.2" clip-path="url(#clip0_1004_13593)">
<path d="M191.692 -26.884C203.764 -31.7881 217.83 -31.4644 233.788 -26.1538L235.503 -25.5855L234.692 -23.9683C227.165 -8.93517 217.449 1.24018 205.443 6.30735C193.44 11.3753 179.219 11.3054 162.7 5.8526L160.977 5.28224L161.794 3.65768C169.619 -11.8758 179.621 -21.9769 191.692 -26.884ZM231.06 -23.7487C216.557 -28.2732 203.794 -28.4196 192.872 -23.9818C181.944 -19.5395 172.775 -10.4678 165.44 3.43397C180.456 8.08136 193.358 8.0122 204.224 3.42379C215.078 -1.15872 224 -10.2894 231.06 -23.7487Z" fill="#E6E7E8"/>
<path fill-rule="evenodd" clip-rule="evenodd" d="M207.894 -11.6932L199.385 -4.26939C198.592 -4.62525 197.663 -4.66435 196.797 -4.30452C195.122 -3.61158 194.328 -1.69302 195.021 -0.0182247C195.715 1.65562 197.633 2.44984 199.307 1.75674C200.732 1.16683 201.514 -0.316204 201.289 -1.7746L209.95 -9.3294L207.894 -11.6932ZM205.936 -19.0199L194.469 -18.2392C193.597 -19.4273 191.997 -19.9213 190.573 -19.3324C188.898 -18.6394 188.104 -16.7199 188.798 -15.0461C189.491 -13.3711 191.409 -12.5771 193.084 -13.2711C193.952 -13.6302 194.576 -14.3139 194.888 -15.1266L206.154 -15.895L205.936 -19.0199ZM179.762 -2.50062C180.455 -0.826775 182.374 -0.03158 184.048 -0.724682C185.194 -1.20011 185.921 -2.25305 186.047 -3.40424L207.181 -12.1575L205.978 -15.0607L184.844 -6.30656C183.943 -7.03051 182.683 -7.26266 181.537 -6.78707C179.863 -6.09286 179.068 -4.17558 179.762 -2.50062Z" fill="#E6E7E8"/>
<path d="M202.014 15.5825C198.757 14.3147 195.498 13.6588 192.238 13.6486C188.972 13.6393 185.652 14.2748 182.279 15.5825C185.653 16.8892 188.971 17.5234 192.239 17.5133C195.5 17.5028 198.761 16.8489 202.014 15.5825ZM207.416 20.9867C208.683 24.2438 209.344 27.5019 209.354 30.765C209.359 34.0273 208.727 37.3493 207.417 40.7229C206.108 37.3463 205.476 34.0251 205.488 30.7599C205.49 27.4967 206.152 24.2417 207.416 20.9867ZM208.026 14.9689C207.831 17.3441 207.106 19.1903 205.827 20.4865C204.548 21.7819 202.695 22.5483 200.24 22.7556C200.451 20.3052 201.219 18.4507 202.516 17.1698C203.81 15.8917 205.656 15.1679 208.026 14.9689ZM308.255 -90.6593C306.987 -93.9154 306.333 -97.1755 306.322 -100.436C306.313 -103.701 306.949 -107.022 308.255 -110.395C309.563 -107.021 310.197 -103.703 310.187 -100.435C310.176 -97.1734 309.522 -93.9123 308.255 -90.6593ZM313.66 -85.2581C316.918 -83.9905 320.176 -83.3295 323.439 -83.3201C326.701 -83.315 330.022 -83.9452 333.396 -85.2571C330.02 -86.5649 326.699 -87.1972 323.433 -87.1857C320.17 -87.1838 316.915 -86.5216 313.66 -85.2581ZM307.643 -84.6475C310.017 -84.8415 311.864 -85.5664 313.16 -86.8464C314.456 -88.1253 315.222 -89.9786 315.428 -92.4334C312.978 -92.223 311.123 -91.4545 309.844 -90.1581C308.566 -88.8638 307.841 -87.0176 307.643 -84.6475Z" fill="#E6E7E8"/>
<path d="M207.42 -90.6604C208.687 -93.9154 209.341 -97.1757 209.354 -100.436C209.363 -103.703 208.726 -107.022 207.419 -110.395C206.112 -107.021 205.478 -103.703 205.488 -100.436C205.498 -97.1746 206.152 -93.9122 207.42 -90.6604ZM202.014 -85.2581C198.757 -83.9916 195.5 -83.3305 192.237 -83.3211C188.973 -83.3149 185.652 -83.9461 182.279 -85.257C185.654 -86.5648 188.976 -87.1979 192.241 -87.1867C195.503 -87.1838 198.76 -86.5216 202.014 -85.2581ZM208.032 -84.6475C205.658 -84.8415 203.811 -85.5664 202.516 -86.8464C201.22 -88.1264 200.453 -89.9786 200.246 -92.4333C202.697 -92.223 204.55 -91.4545 205.831 -90.1581C207.11 -88.8638 207.834 -87.0187 208.032 -84.6475ZM313.662 15.5814C316.918 14.3138 320.178 13.6588 323.437 13.6487C326.703 13.6383 330.024 14.2737 333.396 15.5825C330.021 16.8892 326.703 17.5235 323.437 17.5133C320.176 17.5028 316.913 16.849 313.662 15.5814ZM308.259 20.9867C306.993 24.2428 306.332 27.5009 306.322 30.7651C306.315 34.0274 306.947 37.3493 308.259 40.7218C309.566 37.3463 310.199 34.0251 310.188 30.76C310.184 27.4967 309.522 24.2406 308.259 20.9867ZM307.648 14.9689C307.844 17.3431 308.569 19.1903 309.847 20.4865C311.128 21.781 312.98 22.5472 315.435 22.7557C315.224 20.303 314.456 18.4508 313.159 17.1698C311.865 15.8917 310.02 15.1668 307.648 14.9689Z" fill="#E6E7E8"/>
<path fill-rule="evenodd" clip-rule="evenodd" d="M112.846 -3.35357C112.829 -3.82168 113.194 -4.20964 113.66 -4.22602C114.128 -4.2416 114.518 -3.87319 114.533 -3.40921C114.55 -2.94508 114.182 -2.55201 113.713 -2.53659C113.251 -2.52641 112.863 -2.88625 112.846 -3.35357ZM109.313 -4.14366C109.29 -4.74374 109.764 -5.24508 110.362 -5.26463C110.959 -5.28753 111.464 -4.8172 111.48 -4.2168C111.501 -3.61449 111.032 -3.11427 110.433 -3.09264C109.838 -3.07197 109.33 -3.54437 109.313 -4.14366ZM109.193 -12.7213C109.523 -12.3903 110.056 -12.3903 110.386 -12.7193C110.716 -13.0482 110.719 -13.5816 110.389 -13.9126C110.062 -14.2416 109.526 -14.2448 109.196 -13.9158C108.865 -13.5866 108.866 -13.0503 109.193 -12.7213ZM107.345 -9.60771C107.767 -9.18285 108.457 -9.17981 108.882 -9.6026C109.307 -10.0254 109.307 -10.7164 108.884 -11.1415C108.462 -11.5643 107.775 -11.5663 107.35 -11.1435C106.925 -10.7195 106.923 -10.0305 107.345 -9.60771ZM106.691 -5.46259C107.209 -4.94185 108.052 -4.93963 108.572 -5.45846C109.093 -5.97634 109.095 -6.81892 108.577 -7.3387C108.058 -7.85944 107.216 -7.86151 106.696 -7.34379C106.175 -6.82511 106.173 -5.98238 106.691 -5.46259ZM100.421 -3.75981C101.227 -11.7725 105.68 -15.9081 112.623 -17.3966C108.487 -14.8275 104.85 -11.757 104.705 -5.18005C108.589 -0.884371 113.647 -0.764647 119.368 -2.98849C112.561 1.19175 106.107 2.20255 100.421 -3.75981ZM119.43 -11.2599C116.943 -8.58658 117.223 -6.32074 118.769 -4.20645L118.758 -4.19199C116.053 -3.70416 112.989 -4.73339 109.871 -7.4387C110.168 -11.4114 111.542 -14.251 113.676 -15.8432L113.997 -15.8143C114.386 -13.2196 115.778 -11.4116 119.43 -11.2599ZM122.686 -12.5771C118.991 -8.59499 119.403 -5.22457 121.708 -2.0777C115.711 5.31396 106.776 5.69032 97.627 -2.26342C98.5293 -14.3491 105.136 -20.3795 114.599 -19.349C115.178 -15.4885 117.26 -12.8029 122.686 -12.5771Z" fill="#E6E7E8"/>
<path d="M125.334 -6.94469C125.427 -9.21274 126.536 -11.656 129.028 -14.3479L130.64 -16.0848L128.271 -16.1878C124.605 -16.3455 122.097 -17.3018 120.437 -18.8457C118.794 -20.3722 117.928 -22.5359 117.547 -25.101L117.423 -25.9353L116.581 -26.0281C116.289 -26.061 115.948 -26.0911 115.561 -26.1199C108.839 -26.618 103.092 -24.7132 98.7899 -20.566C94.5356 -16.4683 91.7293 -10.1925 90.8298 -1.91267C90.7721 -1.39081 90.7194 -0.804874 90.6721 -0.165516L90.6318 0.384169L91.0464 0.745268C92.7657 2.23864 94.4798 3.53913 96.1775 4.6396C101.345 7.99477 106.422 9.58591 111.174 9.51802C117.145 9.43247 122.566 6.74262 126.99 1.65908C127.248 1.36094 127.465 1.10302 127.655 0.869917L128.189 0.214022L127.687 -0.469862C126.151 -2.55935 125.244 -4.70574 125.334 -6.94469ZM126.023 -14.1818C124.119 -11.6848 123.238 -9.31673 123.144 -7.04058C123.041 -4.50445 123.91 -2.1313 125.425 0.129435L125.336 0.226444C121.34 4.822 116.474 7.25396 111.146 7.32949C106.824 7.39134 102.16 5.91529 97.3698 2.80484C95.8868 1.84254 94.3953 0.72777 92.8999 -0.542997C92.933 -0.901873 92.9649 -1.28253 93.0082 -1.67336C93.8518 -9.42501 96.4239 -15.2481 100.311 -18.992C104.149 -22.6925 109.318 -24.3891 115.396 -23.9394L115.521 -23.925C116.037 -21.2548 117.089 -18.9651 118.947 -17.2356C120.615 -15.6834 122.913 -14.6129 126.023 -14.1818Z" fill="#E6E7E8"/>
<path fill-rule="evenodd" clip-rule="evenodd" d="M201.616 113.997C201.274 113.677 201.257 113.145 201.575 112.805C201.895 112.462 202.43 112.447 202.769 112.765C203.11 113.08 203.127 113.619 202.807 113.961C202.488 114.294 201.959 114.314 201.616 113.997ZM198.559 115.936C198.119 115.528 198.099 114.838 198.509 114.402C198.915 113.963 199.604 113.939 200.04 114.352C200.48 114.763 200.501 115.448 200.095 115.888C199.687 116.323 198.994 116.348 198.559 115.936ZM192.409 109.955C192.876 109.956 193.253 109.58 193.254 109.114C193.255 108.646 192.88 108.268 192.412 108.267C191.948 108.266 191.568 108.643 191.567 109.11C191.565 109.576 191.945 109.954 192.409 109.955ZM193.303 113.465C193.903 113.466 194.394 112.98 194.394 112.38C194.396 111.781 193.908 111.293 193.308 111.291C192.71 111.29 192.222 111.776 192.222 112.376C192.219 112.975 192.706 113.463 193.303 113.465ZM195.772 116.858C196.507 116.859 197.104 116.264 197.106 115.531C197.107 114.797 196.513 114.199 195.779 114.197C195.044 114.195 194.447 114.79 194.445 115.525C194.444 116.259 195.038 116.856 195.772 116.858ZM192.543 122.495C187.447 116.259 187.671 110.186 191.528 104.225C190.421 108.965 190.019 113.709 194.568 118.461C200.352 118.753 204.013 115.261 206.486 109.643C204.629 117.412 200.779 122.69 192.543 122.495ZM200.681 103.75C200.813 107.398 202.612 108.803 205.201 109.205L205.203 109.223C203.637 111.48 200.741 112.919 196.624 113.211C194.025 110.193 192.989 107.213 193.371 104.578L193.618 104.371C195.729 105.932 197.992 106.226 200.681 103.75ZM202.052 100.516C202.255 105.945 204.93 108.038 208.785 108.632C209.77 118.1 203.719 124.684 191.626 125.529C183.717 116.344 184.126 107.409 191.545 101.445C194.684 103.768 198.056 104.194 202.052 100.516Z" fill="#E6E7E8"/>
<path d="M207.907 102.626C206.37 100.957 205.426 98.4452 205.284 94.7797L205.196 92.4116L203.448 94.0144C200.744 96.4949 198.295 97.5922 196.029 97.6737C193.788 97.7563 191.646 96.8382 189.562 95.2942L188.884 94.7921L188.224 95.3222C187.995 95.5046 187.732 95.7255 187.438 95.9781C182.332 100.379 179.616 105.79 179.506 111.764C179.395 117.67 181.849 124.092 187.067 130.583C187.395 130.992 187.773 131.445 188.192 131.929L188.551 132.347L189.099 132.309C191.37 132.149 193.503 131.857 195.481 131.434C201.508 130.152 206.223 127.688 209.535 124.281C213.697 119.998 215.628 114.262 215.161 107.54C215.134 107.147 215.104 106.81 215.074 106.511L214.988 105.67L214.149 105.541C211.586 105.149 209.426 104.273 207.907 102.626ZM203.278 97.022C203.696 100.134 204.747 102.431 206.291 104.108C208.011 105.974 210.304 107.038 212.973 107.565L212.978 107.695C213.402 113.771 211.682 118.932 207.968 122.753C204.956 125.852 200.614 128.106 195.026 129.294C193.298 129.662 191.455 129.929 189.499 130.088C189.268 129.811 189.023 129.518 188.776 129.212C183.892 123.134 181.593 117.197 181.694 111.801C181.792 106.471 184.247 101.617 188.863 97.6365L188.961 97.5583C191.213 99.0816 193.576 99.9583 196.114 99.8666C198.391 99.7839 200.772 98.9165 203.278 97.022Z" fill="#E6E7E8"/>
<path fill-rule="evenodd" clip-rule="evenodd" d="M184.079 147.41C185.97 147.41 187.503 145.877 187.503 143.987C187.503 142.097 185.97 140.563 184.079 140.563C182.189 140.563 180.656 142.097 180.656 143.987C180.656 145.877 182.189 147.41 184.079 147.41Z" fill="#E6E7E8"/>
<path fill-rule="evenodd" clip-rule="evenodd" d="M252.227 188.404C253.716 188.404 254.924 187.196 254.924 185.707C254.924 184.217 253.716 183.009 252.227 183.009C250.738 183.009 249.529 184.217 249.529 185.707C249.529 187.196 250.738 188.404 252.227 188.404ZM246.716 180.064C248.205 180.064 249.414 178.856 249.414 177.367C249.414 175.878 248.205 174.67 246.716 174.67C245.226 174.67 244.019 175.878 244.019 177.367C244.019 178.856 245.226 180.064 246.716 180.064ZM239.207 174.348C241.421 174.348 243.217 172.552 243.217 170.339C243.217 168.126 241.421 166.33 239.207 166.33C236.995 166.33 235.199 168.126 235.199 170.339C235.198 172.552 236.995 174.348 239.207 174.348ZM230.954 166.816C232.443 166.816 233.651 165.607 233.651 164.118C233.651 162.629 232.443 161.421 230.954 161.421C229.465 161.421 228.256 162.629 228.256 164.118C228.256 165.607 229.465 166.816 230.954 166.816ZM224.644 161.612C226.133 161.612 227.341 160.404 227.341 158.915C227.341 157.426 226.133 156.217 224.644 156.217C223.155 156.217 221.946 157.426 221.946 158.915C221.946 160.404 223.155 161.612 224.644 161.612ZM218.582 155.825C220.071 155.825 221.279 154.617 221.279 153.128C221.279 151.639 220.071 150.43 218.582 150.43C217.093 150.43 215.884 151.639 215.884 153.128C215.884 154.617 217.093 155.825 218.582 155.825ZM214.373 149.132C215.862 149.132 217.071 147.923 217.071 146.433C217.071 144.945 215.862 143.736 214.373 143.736C212.885 143.736 211.676 144.945 211.676 146.433C211.676 147.923 212.885 149.132 214.373 149.132ZM209.22 142.507C211.978 142.507 214.214 140.271 214.214 137.513C214.214 134.755 211.978 132.52 209.22 132.52C206.463 132.52 204.227 134.755 204.227 137.513C204.227 140.271 206.463 142.507 209.22 142.507ZM199.232 142.507C200.721 142.507 201.93 141.298 201.93 139.809C201.93 138.321 200.721 137.112 199.232 137.112C197.743 137.112 196.535 138.321 196.535 139.809C196.535 141.298 197.743 142.507 199.232 142.507ZM191.999 144.574C193.488 144.574 194.697 143.365 194.697 141.876C194.697 140.387 193.488 139.179 191.999 139.179C190.51 139.179 189.302 140.387 189.302 141.876C189.302 143.365 190.51 144.574 191.999 144.574Z" fill="#E6E7E8"/>
<path d="M152.98 -17.346C155.127 -23.4619 157.327 -29.7151 161.311 -34.8389C157.326 -39.9628 155.127 -46.2201 152.98 -52.335C150.966 -58.0724 148.995 -63.683 145.641 -67.9373C144.203 -64.2697 142.998 -60.3363 142.062 -56.1974C141.86 -55.3012 141.663 -54.3594 141.474 -53.3787C140.348 -47.5329 139.738 -41.3096 139.737 -34.8626H139.741V-34.8389C139.741 -25.5422 140.997 -16.7375 143.244 -8.86306C143.685 -7.31085 144.16 -5.81224 144.661 -4.37769C144.968 -3.49696 145.296 -2.61497 145.641 -1.73837C148.995 -5.99461 150.966 -11.6073 152.98 -17.346ZM163.518 -34.1541C159.421 -29.1972 157.19 -22.8431 155.01 -16.6384C152.703 -10.0707 150.451 -3.66089 146.094 1.03707L144.957 2.2633L144.312 0.716339L144.306 0.702988L144.305 0.704117C143.724 -0.67907 143.164 -2.14049 142.631 -3.66996C142.1 -5.18813 141.612 -6.72604 141.172 -8.27188C138.873 -16.338 137.586 -25.3441 137.586 -34.8387V-34.8624H137.589C137.591 -41.4673 138.212 -47.8256 139.36 -53.7829C139.542 -54.7224 139.744 -55.6878 139.965 -56.6696C141.074 -61.5757 142.542 -66.1829 144.313 -70.4011L144.959 -71.9409L146.095 -70.7178C150.451 -66.0199 152.704 -59.6101 155.01 -53.0422C157.19 -46.8376 159.421 -40.4832 163.519 -35.5266L164.087 -34.8397L163.518 -34.1541Z" fill="#E6E7E8"/>
<path d="M152.98 -17.346C155.127 -23.462 157.328 -29.7152 161.312 -34.8389C157.328 -39.9629 155.127 -46.2202 152.978 -52.335C150.026 -60.7416 147.167 -68.876 139.835 -72.9282C138.166 -68.5284 136.775 -63.8129 135.71 -58.8491C135.479 -57.7673 135.267 -56.7029 135.076 -55.6643C133.871 -49.08 133.221 -42.0935 133.221 -34.8637H133.225V-34.8389C133.225 -24.4201 134.566 -14.5253 136.976 -5.59969C137.44 -3.87957 137.951 -2.17981 138.501 -0.509941C138.923 0.772118 139.37 2.0292 139.834 3.25035C147.166 -0.800774 150.026 -8.93927 152.98 -17.346ZM163.519 -34.1541C159.421 -29.1973 157.189 -22.8431 155.008 -16.6385C151.768 -7.41283 148.633 1.50433 139.717 5.72559L138.672 6.22057L138.256 5.13553L138.252 5.12328L138.249 5.12646C137.608 3.50397 137.009 1.84779 136.453 0.163445C135.897 -1.51978 135.378 -3.25755 134.896 -5.04381C132.438 -14.1499 131.068 -24.2335 131.068 -34.8389V-34.8637H131.073C131.074 -42.2349 131.736 -49.3502 132.961 -56.053C133.168 -57.1783 133.384 -58.2602 133.604 -59.2966C134.787 -64.8113 136.357 -70.0197 138.257 -74.829L138.679 -75.8984L139.719 -75.4065C148.633 -71.1851 151.768 -62.2679 155.007 -53.0424C157.187 -46.8378 159.42 -40.4845 163.519 -35.5268L164.087 -34.8388L163.519 -34.1541Z" fill="#E6E7E8"/>
<path fill-rule="evenodd" clip-rule="evenodd" d="M75.5889 4.92112C75.5889 3.03166 77.1225 1.49805 79.013 1.49805C80.9034 1.49805 82.4361 3.03182 82.4361 4.92112C82.4361 6.81168 80.9034 8.34527 79.013 8.34527C77.1225 8.34527 75.5889 6.81168 75.5889 4.92112Z" fill="#E6E7E8"/>
<path fill-rule="evenodd" clip-rule="evenodd" d="M209.501 39.5317C209.956 22.4719 196.226 10.9897 194.189 -5.19142C178.01 -7.22636 166.526 -20.9559 149.467 -20.5009C136.811 -18.7032 119.873 -2.92336 132.361 8.65569L135.22 11.3074L131.524 12.5554C121.597 15.9072 111.899 21.2818 109.08 32.1141C105.35 46.4429 113.494 62.8272 110.794 78.2121C118.109 76.9548 125.848 78.113 133.078 79.2084C140.609 80.3491 149.4 81.8663 156.883 79.9191C167.718 77.1003 173.091 67.4024 176.444 57.4746L177.691 53.7803L180.343 56.6383C191.923 69.1267 207.703 52.1875 209.501 39.5317ZM196.318 -7.31795C197.384 9.51383 212.391 20.9239 211.817 39.7236C209.684 55.4602 191.24 71.7992 178.641 58.2172C164.14 101.18 131.689 73.9866 107.671 81.33C115.013 57.3085 87.8205 24.8606 130.785 10.3575C117.199 -2.24157 133.542 -20.6845 149.275 -22.8174C168.076 -23.3918 179.485 -8.3844 196.318 -7.31795Z" fill="#E6E7E8"/>
<path d="M191.43 41.015C190.569 38.5386 189.91 36.0106 189.585 33.4158C186.992 33.091 184.462 32.4309 181.984 31.5698C180.401 31.0201 178.834 30.3869 177.28 29.7061C177.734 30.3795 178.208 31.0521 178.703 31.7204C178.998 32.1206 179.24 32.4381 179.434 32.6887C180.957 34.6588 182.649 36.5894 184.506 38.4458L184.509 38.4437L184.534 38.4684C187.213 41.1479 190.033 43.4829 192.9 45.4558L193.297 45.725C192.617 44.1677 191.981 42.5991 191.43 41.015ZM191.63 32.3411C191.889 35.0577 192.559 37.7083 193.461 40.3054C194.38 42.9537 195.532 45.5395 196.733 48.0869L195.224 49.4782L195.196 49.4628L195.193 49.4586C194.63 49.1306 194.04 48.7708 193.431 48.3828C192.831 48.0021 192.246 47.6145 191.679 47.2257C188.689 45.1691 185.767 42.7505 183.009 39.9927L182.985 39.9681L182.988 39.9649C181.068 38.0424 179.313 36.0437 177.736 34.0048C177.426 33.6036 177.167 33.2632 176.976 33.0064C175.705 31.2902 174.553 29.5399 173.526 27.7805L174.914 26.2686C177.461 27.469 180.047 28.619 182.694 29.539C185.291 30.4413 187.942 31.1107 190.659 31.3696L191.547 31.4542L191.63 32.3411Z" fill="#E6E7E8"/>
<path d="M196.062 51.6782C193.256 45.8344 190.39 39.8587 189.584 33.4168C183.144 32.6122 177.165 29.7431 171.323 26.9377C169.329 25.9806 167.355 25.0298 165.39 24.1799C166.527 26.457 167.831 28.7406 169.31 31.0033C169.719 31.6294 170.124 32.2325 170.521 32.803C173.077 36.4737 176.073 40.0721 179.484 43.4828L179.487 43.4796L179.504 43.4961C184.421 48.4138 189.71 52.4648 195.047 55.5745C196.09 56.182 197.132 56.7512 198.166 57.2814L198.823 57.6124C197.973 55.6489 197.019 53.6696 196.062 51.6782ZM191.629 32.341C192.237 38.7438 195.151 44.8143 197.998 50.7424C199.386 53.6323 200.759 56.4922 201.864 59.3772L200.408 60.7375L200.389 60.7292L200.391 60.726C199.309 60.2455 198.237 59.734 197.183 59.1934C196.105 58.6405 195.029 58.0527 193.963 57.4319C188.461 54.2254 183.021 50.0627 177.979 45.0214L177.962 45.004L177.966 45.0008C174.461 41.4952 171.383 37.7998 168.759 34.0291C168.313 33.3907 167.898 32.773 167.511 32.1831C165.435 29.0033 163.676 25.7773 162.256 22.5749L161.225 20.2502L163.61 21.1299L163.63 21.1372L163.642 21.1423C166.52 22.2467 169.373 23.6165 172.258 25.0015C178.187 27.847 184.257 30.7617 190.659 31.3691L191.547 31.4537L191.629 32.341Z" fill="#E6E7E8"/>
<path d="M196.063 51.6769C193.257 45.8332 190.391 39.8563 189.584 33.4166C183.145 32.6111 177.165 29.7419 171.322 26.9366C165.842 24.3034 160.48 21.7303 155.1 21.0928C156.677 24.7036 158.607 28.3372 160.871 31.9242C161.362 32.7008 161.888 33.5063 162.448 34.3333C165.787 39.2643 169.755 44.0952 174.313 48.6549L174.316 48.6517L174.333 48.6682C180.908 55.2423 188.021 60.5805 195.178 64.5595C196.588 65.3443 197.982 66.0683 199.351 66.7294C200.191 67.1347 201.047 67.5256 201.911 67.9021C201.272 62.5217 198.697 57.1596 196.063 51.6769ZM191.63 32.3408C192.238 38.7425 195.153 44.813 197.998 50.7423C201.012 57.0161 203.952 63.1413 204.194 69.5441L204.257 71.2159L202.707 70.5786L202.693 70.5724V70.5745C201.304 70.0073 199.875 69.3689 198.416 68.6644C196.967 67.966 195.534 67.2245 194.13 66.4427C186.801 62.3647 179.523 56.9067 172.808 50.1926L172.792 50.1761L172.795 50.1738C168.126 45.5018 164.069 40.5668 160.667 35.5421C160.131 34.7501 159.593 33.9248 159.054 33.073C156.369 28.8207 154.149 24.5251 152.418 20.2901L151.787 18.7441L153.455 18.806C159.859 19.0475 165.983 21.9869 172.258 25.0004C178.186 27.8459 184.257 30.7616 190.659 31.3691L191.546 31.4526L191.63 32.3408Z" fill="#E6E7E8"/>
<path d="M196.062 51.6781C193.256 45.8344 190.391 39.8565 189.584 33.4168C183.144 32.6103 177.164 29.7431 171.321 26.9376C163.288 23.0814 155.515 19.351 147.465 21.6706C149.396 25.9609 151.746 30.2794 154.504 34.5419C155.105 35.4701 155.708 36.3736 156.308 37.2419C160.112 42.7505 164.592 48.1497 169.704 53.2622L169.707 53.2601L169.724 53.2776C177.091 60.6446 185.037 66.6923 193.052 71.2995C194.596 72.1887 196.159 73.0292 197.73 73.8204C198.934 74.4287 200.139 75.0022 201.331 75.5376C203.65 67.4877 199.918 59.7114 196.062 51.6781ZM191.629 32.3409C192.238 38.7426 195.151 44.8142 197.998 50.7435C202.229 59.5586 206.319 68.0796 202.999 77.3692L202.61 78.4584L201.548 77.986L201.537 77.9798L201.536 77.9839C199.936 77.2897 198.342 76.5429 196.757 75.7448C195.175 74.9474 193.579 74.0851 191.974 73.1643C183.797 68.4624 175.699 62.3009 168.2 54.8019L168.182 54.7846L168.186 54.7813C162.974 49.5678 158.41 44.0696 154.538 38.4631C153.888 37.5215 153.275 36.6037 152.699 35.7145C149.637 30.9786 147.063 26.1857 145.006 21.4415L144.548 20.3874L145.631 19.9996C154.919 16.6809 163.44 20.7701 172.255 25.0029C178.185 27.8484 184.255 30.762 190.659 31.3694L191.547 31.454L191.629 32.3409Z" fill="#E6E7E8"/>
<path d="M196.064 17.68C193.258 11.8362 190.391 5.85736 189.584 -0.583295C183.145 -1.38881 177.164 -4.25805 171.32 -7.06449C162.862 -11.1248 154.689 -15.0483 146.179 -11.914C141.072 -9.6965 137.783 -6.65808 136.307 -3.51646C136.032 -2.93069 135.819 -2.33442 135.669 -1.73752C135.522 -1.1527 135.44 -0.572009 135.42 -0.00674629H135.422L135.422 0.0179033V0.0302868C135.253 5.47986 139.239 6.48557 143.617 7.59129C146.97 8.43592 150.525 9.33525 153.113 12.0302L153.163 12.0807C155.821 15.2542 156.443 18.6258 155.651 21.6631C155.14 23.6196 154.036 25.4205 152.51 26.9211C151.013 28.3958 149.098 29.5861 146.94 30.3482C142.376 31.9593 136.696 31.6746 131.498 28.1638L132.346 26.2249C138.679 27.7029 142.748 26.2755 144.817 24.0116C145.62 23.1329 146.116 22.1283 146.319 21.131C146.515 20.1687 146.435 19.2138 146.089 18.3981H146.091C145.516 17.0491 144.17 16.0629 142.105 16.0445L141.768 15.9877C137.497 14.546 130.148 17.2873 124.052 21.6839L124.049 21.6871C122.842 22.5556 121.692 23.4869 120.629 24.4595C119.567 25.4331 118.588 26.4501 117.73 27.4876L117.702 27.5227C112.188 34.2183 113.479 42.4754 114.733 50.5024C115.027 52.3836 115.32 54.2576 115.518 55.9976L115.516 55.9988L115.52 56.0337L115.522 56.0359C115.704 57.6427 115.989 59.1661 116.274 60.6884C116.909 64.0837 117.546 67.483 117.134 71.8704C121.52 71.4567 124.918 72.0923 128.312 72.7265C129.834 73.0123 131.358 73.2958 132.964 73.4785C134.719 73.6785 136.604 73.9723 138.499 74.2674C146.525 75.5226 154.781 76.8129 161.477 71.2991C166.854 66.8704 171.529 59.3859 172.954 53.2246C173.224 52.058 173.374 50.9453 173.387 49.9221C173.397 48.9361 173.281 48.0346 173.022 47.2549L173.012 47.2261L172.955 46.8949C172.938 44.8302 171.951 43.4842 170.603 42.9118L170.6 42.9086C169.788 42.5641 168.833 42.4837 167.869 42.6807C166.871 42.8837 165.867 43.3798 164.989 44.1832C162.725 46.2522 161.297 50.322 162.776 56.6535L160.836 57.5024C157.326 52.3054 157.04 46.6246 158.652 42.0597C159.414 39.9022 160.604 37.9889 162.079 36.4895C163.58 34.964 165.381 33.8605 167.337 33.3499C170.374 32.5579 173.747 33.1798 176.919 35.8366L176.969 35.8872C179.665 38.4748 180.564 42.0311 181.408 45.3829C182.514 49.7621 183.521 53.7463 188.969 53.5782C192.002 53.4853 195.224 51.6371 197.936 48.0347C198.472 47.322 198.993 46.5299 199.492 45.6636C199.988 44.8002 200.459 43.8647 200.897 42.8603L200.9 42.8562L200.908 42.8387C204.052 34.3221 200.127 26.1435 196.064 17.68ZM191.63 -1.65912C192.238 4.74257 195.153 10.8151 197.999 16.7444C202.272 25.642 206.398 34.2385 202.907 43.628L202.884 43.6878L202.867 43.7229L202.869 43.7241C202.4 44.8007 201.892 45.8083 201.355 46.7418C200.821 47.6701 200.25 48.5354 199.65 49.3316C196.526 53.4826 192.706 55.6147 189.037 55.7281C181.857 55.9499 180.65 51.1645 179.323 45.9056C178.558 42.8672 177.744 39.6452 175.531 37.4844L175.53 37.4855C172.953 35.3268 170.264 34.8059 167.879 35.4289C166.306 35.8383 164.843 36.7429 163.609 37.996C162.352 39.2738 161.334 40.9157 160.678 42.7743C159.886 45.0175 159.625 47.5764 160.099 50.1981C160.423 46.7213 161.779 44.2028 163.534 42.5989C164.715 41.5202 166.08 40.8497 167.439 40.5724C168.828 40.2899 170.226 40.4145 171.441 40.9292L171.442 40.927C173.503 41.8028 175.023 43.7612 175.103 46.7098C175.411 47.6949 175.548 48.7861 175.536 49.9514C175.522 51.1344 175.351 52.4009 175.05 53.7118C173.531 60.2806 168.561 68.2489 162.847 72.954C155.404 79.0824 146.662 77.7169 138.165 76.3874C136.364 76.1068 134.575 75.8274 132.719 75.6171C131.052 75.4272 129.481 75.1343 127.913 74.8403C124.346 74.1741 120.773 73.5056 116.053 74.1617L114.643 74.3566L114.838 72.9456C115.493 68.2272 114.826 64.6526 114.158 61.0861C113.866 59.5185 113.572 57.9476 113.382 56.2798H113.385L113.381 56.2436L113.378 56.2404C113.167 54.3974 112.89 52.6215 112.611 50.8351C111.283 42.3358 109.917 33.5948 116.045 26.1526L116.074 26.1185C116.998 24.9996 118.046 23.9104 119.174 22.875C120.306 21.8385 121.523 20.8545 122.791 19.9418C129.314 15.2388 137.339 12.3468 142.295 13.8981C145.24 13.9785 147.195 15.4945 148.07 17.5552L148.073 17.5584C148.586 18.7703 148.711 20.1676 148.428 21.56C148.15 22.9194 147.48 24.284 146.4 25.4649C144.797 27.2203 142.284 28.5785 138.806 28.9035C141.428 29.3759 143.983 29.1148 146.226 28.3217C148.083 27.6658 149.726 26.648 151.004 25.3897C152.257 24.1561 153.162 22.6926 153.571 21.122C154.194 18.7362 153.675 16.0486 151.514 13.4702L151.515 13.4692C149.354 11.2559 146.133 10.4421 143.094 9.67586C137.835 8.35055 133.05 7.14179 133.271 -0.0364828L133.272 -0.0466528L133.275 -0.0622587C133.299 -0.79543 133.402 -1.53304 133.584 -2.26001C133.766 -2.983 134.026 -3.71012 134.366 -4.43423C136.052 -8.02329 139.707 -11.4495 145.314 -13.8866L145.372 -13.9062C154.76 -17.3973 163.357 -13.2719 172.254 -9.00007C178.185 -6.15357 184.257 -3.23788 190.659 -2.63033L191.546 -2.54685L191.63 -1.65912Z" fill="#E6E7E8"/>
<path fill-rule="evenodd" clip-rule="evenodd" d="M173.711 38.4643C174.537 39.2893 176.33 38.8355 177.715 37.4505C179.101 36.0643 179.555 34.2718 178.73 33.4456C177.905 32.6205 176.112 33.0753 174.726 34.4615C173.341 35.8466 172.887 37.6392 173.711 38.4643ZM168.49 31.3943C169.168 32.3442 171.011 32.1895 172.605 31.0508C174.2 29.9111 174.941 28.2177 174.263 27.2667C173.584 26.3177 171.741 26.4726 170.146 27.6122C168.552 28.7508 167.811 30.4434 168.49 31.3943ZM184.538 49.2893C183.711 48.4633 184.166 46.6708 185.551 45.2856C186.936 43.8996 188.729 43.4458 189.555 44.2718C190.38 45.0959 189.925 46.8895 188.54 48.2745C187.155 49.6596 185.363 50.1146 184.538 49.2893ZM191.607 54.5101C190.658 53.8335 190.811 51.9895 191.951 50.3962C193.09 48.8017 194.784 48.06 195.734 48.7387C196.683 49.4164 196.529 51.2603 195.388 52.856C194.251 54.4484 192.557 55.19 191.607 54.5101ZM178.559 44.4441C177.733 43.6181 178.186 41.8255 179.571 40.4404C180.958 39.0542 182.75 38.6006 183.576 39.4255C184.401 40.2506 183.947 42.0432 182.561 43.4292C181.176 44.8145 179.383 45.2683 178.559 44.4441Z" fill="#E6E7E8"/>
<path fill-rule="evenodd" clip-rule="evenodd" d="M163.537 48.0353C164.363 48.8613 166.156 48.4066 167.541 47.0215C168.927 45.6364 169.381 43.8439 168.556 43.0176C167.731 42.1927 165.938 42.6463 164.552 44.0325C163.167 45.4176 162.712 47.2101 163.537 48.0353ZM157.866 41.0302C158.542 41.9791 160.386 41.8254 161.98 40.6858C163.574 39.5472 164.316 37.8527 163.637 36.9028C162.96 35.9538 161.116 36.1075 159.52 37.2471C157.928 38.3858 157.185 40.0792 157.866 41.0302ZM153.272 34.5059C153.839 35.5269 155.689 35.5825 157.4 34.6296C159.113 33.6776 160.04 32.0779 159.475 31.0579C158.906 30.0379 157.057 29.9832 155.344 30.9353C153.633 31.8873 152.705 33.4859 153.272 34.5059ZM149.035 27.7493C149.477 28.8302 151.306 29.1044 153.119 28.362C154.933 27.6205 156.042 26.1414 155.603 25.0605C155.16 23.9796 153.331 23.7074 151.515 24.45C149.704 25.1906 148.594 26.6694 149.035 27.7493ZM174.964 59.4617C174.139 58.6368 174.592 56.8431 175.978 55.458C177.364 54.0727 179.156 53.618 179.982 54.4442C180.807 55.2691 180.353 57.0617 178.966 58.4479C177.581 59.833 175.789 60.2868 174.964 59.4617ZM181.97 65.1342C181.02 64.4567 181.175 62.6135 182.313 61.0201C183.453 59.4247 185.146 58.6842 186.097 59.3617C187.046 60.0403 186.891 61.8834 185.752 63.479C184.613 65.0724 182.921 65.8138 181.97 65.1342ZM188.493 69.7267C187.472 69.1605 187.418 67.3115 188.37 65.6003C189.322 63.8873 190.921 62.959 191.942 63.5252C192.962 64.0924 193.017 65.9417 192.064 67.6559C191.113 69.3669 189.513 70.2952 188.493 69.7267ZM195.25 73.9647C194.169 73.5233 193.895 71.6927 194.638 69.8805C195.38 68.0664 196.858 66.9577 197.939 67.397C199.019 67.8394 199.293 69.669 198.55 71.4842C197.81 73.2964 196.331 74.4061 195.25 73.9647ZM168.685 54.3163C167.86 53.4903 168.314 51.6977 169.699 50.3126C171.085 48.9264 172.877 48.4726 173.703 49.2986C174.528 50.1237 174.074 51.9163 172.688 53.3014C171.302 54.6865 169.51 55.1414 168.685 54.3163Z" fill="#E6E7E8"/>
<path fill-rule="evenodd" clip-rule="evenodd" d="M161.081 91.4546C159.749 90.1222 159.749 87.9603 161.081 86.6279C162.414 85.2954 164.576 85.2954 165.908 86.6279C167.241 87.9605 167.241 90.1223 165.908 91.4546C164.576 92.7872 162.414 92.7872 161.081 91.4546Z" fill="#E6E7E8"/>
<path fill-rule="evenodd" clip-rule="evenodd" d="M131.545 61.9183C130.213 60.5859 130.213 58.4241 131.545 57.0917C132.878 55.7591 135.04 55.7591 136.372 57.0917C137.706 58.4242 137.706 60.586 136.372 61.9183C135.039 63.251 132.878 63.251 131.545 61.9183Z" fill="#E6E7E8"/>
<path fill-rule="evenodd" clip-rule="evenodd" d="M138.01 44.019C133.72 51.8492 126.765 54.6132 121.912 52.9083C115.749 50.8683 122.864 40.27 126.95 48.9149C130.77 49.3749 134.46 47.7423 138.01 44.019ZM142.071 36.3095C135.563 42.4234 128.094 42.8917 124.011 39.7656C118.783 35.9134 128.835 28.0461 130.038 37.5325C133.527 39.1561 137.541 38.7488 142.071 36.3095ZM144.984 50.9858C137.148 55.2743 134.381 62.2328 136.089 67.0833C138.133 73.2539 148.728 66.1375 140.084 62.0492C139.625 58.2259 141.258 54.541 144.984 50.9858ZM152.69 46.9254C146.574 53.4322 146.106 60.9034 149.232 64.9866C153.086 70.2168 160.952 60.165 151.465 58.9583C149.842 55.4692 150.252 51.4561 152.69 46.9254ZM162.318 26.6819L157.472 36.025L137.748 51.2521L152.974 31.5261L162.318 26.6819ZM121.954 67.0453C121.57 66.6605 121.57 66.0375 121.954 65.6529C122.173 65.4331 122.469 65.3425 122.756 65.3733C122.603 64.6133 122.989 63.4725 123.785 62.2565C123.605 62.1626 123.433 62.0377 123.281 61.8851C122.489 61.0931 122.489 59.8101 123.281 59.0181C124.073 58.2259 125.356 58.2259 126.148 59.0181C126.252 59.1221 126.341 59.2388 126.418 59.3574C128.367 57.7567 130.348 57.0874 131.13 57.8701C131.913 58.6527 131.244 60.632 129.643 62.5823C129.761 62.6598 129.877 62.7474 129.981 62.8515C130.773 63.6435 130.773 64.9267 129.981 65.7187C129.189 66.5107 127.907 66.5107 127.114 65.7187C126.963 65.5661 126.838 65.397 126.744 65.2153C125.526 66.0116 124.385 66.3974 123.627 66.2447C123.656 66.5295 123.565 66.8254 123.346 67.0451C122.962 67.4299 122.339 67.4299 121.954 67.0453Z" fill="#E6E7E8"/>
<path fill-rule="evenodd" clip-rule="evenodd" d="M181.127 146.188C179.791 144.851 179.791 142.683 181.127 141.347C182.464 140.01 184.632 140.01 185.969 141.347C187.305 142.683 187.305 144.851 185.969 146.188C184.632 147.525 182.464 147.525 181.127 146.188Z" fill="#E6E7E8"/>
<path fill-rule="evenodd" clip-rule="evenodd" d="M92.9889 96.0647C91.6521 94.7281 91.6521 92.5602 92.9889 91.2236C94.3255 89.887 96.4935 89.887 97.8301 91.2236C99.1667 92.5602 99.1667 94.7281 97.8301 96.0647C96.4935 97.4013 94.3256 97.4013 92.9889 96.0647Z" fill="#E6E7E8"/>
<path fill-rule="evenodd" clip-rule="evenodd" d="M103.952 92.9873C102.899 91.9342 102.899 90.2252 103.952 89.1723C105.005 88.1192 106.714 88.1192 107.767 89.1723C108.819 90.2252 108.819 91.9342 107.767 92.9873C106.714 94.0403 105.005 94.0403 103.952 92.9873ZM113.746 90.9873C112.693 89.9343 112.693 88.2253 113.746 87.1724C114.799 86.1193 116.508 86.1193 117.561 87.1724C118.614 88.2253 118.614 89.9343 117.561 90.9873C116.508 92.0404 114.799 92.0404 113.746 90.9873ZM123.096 92.2538C121.532 90.6892 121.532 88.1491 123.096 86.5845C124.661 85.0199 127.202 85.0199 128.767 86.5845C130.331 88.1491 130.331 90.6892 128.767 92.2538C127.202 93.8184 124.661 93.8184 123.096 92.2538ZM134.259 92.7644C133.207 91.7115 133.207 90.0023 134.259 88.9494C135.312 87.8963 137.021 87.8963 138.074 88.9494C139.127 90.0023 139.127 91.7115 138.074 92.7644C137.021 93.8175 135.312 93.8175 134.259 92.7644ZM142.4 93.5461C141.347 92.4931 141.347 90.7841 142.4 89.7322C143.453 88.6792 145.162 88.6792 146.215 89.7322C147.268 90.7841 147.268 92.4931 146.215 93.5461C145.162 94.5991 143.453 94.5991 142.4 93.5461ZM150.779 93.7412C149.726 92.6881 149.726 90.9792 150.779 89.9261C151.832 88.8732 153.541 88.8732 154.594 89.9261C155.647 90.9792 155.647 92.6881 154.594 93.7412C153.541 94.7941 151.832 94.7941 150.779 93.7412ZM158.488 91.9837C157.435 90.9308 157.435 89.2216 158.488 88.1687C159.541 87.1156 161.25 87.1156 162.303 88.1687C163.356 89.2216 163.356 90.9308 162.303 91.9837C161.25 93.0368 159.541 93.0368 158.488 91.9837ZM166.816 90.943C164.865 88.9926 164.865 85.8307 166.816 83.8801C168.766 81.9309 171.928 81.9309 173.878 83.8801C175.828 85.8307 175.828 88.9926 173.878 90.943C171.928 92.8933 168.766 92.8933 166.816 90.943ZM173.878 98.0058C172.826 96.9527 172.826 95.2437 173.878 94.1908C174.932 93.1377 176.64 93.1377 177.693 94.1908C178.747 95.2437 178.747 96.9527 177.693 98.0058C176.64 99.0587 174.932 99.0587 173.878 98.0058ZM177.533 104.582C176.479 103.529 176.479 101.82 177.533 100.767C178.586 99.7138 180.295 99.7138 181.348 100.767C182.4 101.82 182.4 103.529 181.348 104.582C180.295 105.635 178.585 105.635 177.533 104.582Z" fill="#E6E7E8"/>
<path fill-rule="evenodd" clip-rule="evenodd" d="M76.8121 7.87297C78.1487 9.20956 80.3167 9.20956 81.6533 7.87297C82.9899 6.53637 82.9899 4.36834 81.6533 3.03174C80.3167 1.69515 78.1487 1.69515 76.8121 3.03174C75.4755 4.36834 75.4753 6.53621 76.8121 7.87297Z" fill="#E6E7E8"/>
<path fill-rule="evenodd" clip-rule="evenodd" d="M92.9341 96.0111C94.2708 97.3477 96.4397 97.3477 97.7764 96.0111C99.1132 94.6745 99.113 92.5055 97.7764 91.1689C96.4398 89.8324 94.2708 89.8324 92.9341 91.1689C91.5975 92.5055 91.5975 94.6745 92.9341 96.0111Z" fill="#E6E7E8"/>
<path fill-rule="evenodd" clip-rule="evenodd" d="M96.0114 85.0476C97.0645 86.1007 98.7735 86.1007 99.8264 85.0476C100.88 83.9947 100.88 82.2857 99.8264 81.2326C98.7733 80.1797 97.0643 80.1797 96.0114 81.2326C94.9583 82.2857 94.9583 83.9947 96.0114 85.0476ZM98.0122 75.2537C99.0653 76.3068 100.774 76.3068 101.827 75.2537C102.879 74.2008 102.879 72.4918 101.827 71.4387C100.774 70.3858 99.0651 70.3858 98.0122 71.4387C96.9592 72.4918 96.9592 74.2008 98.0122 75.2537ZM96.7446 65.9025C98.3092 67.4671 100.85 67.4671 102.415 65.9025C103.98 64.3379 103.98 61.7978 102.415 60.2332C100.85 58.6685 98.3092 58.6685 96.7446 60.2332C95.18 61.7978 95.1801 64.3379 96.7446 65.9025ZM96.2351 54.74C97.2882 55.7931 98.997 55.7931 100.05 54.74C101.102 53.6871 101.102 51.9781 100.05 50.925C98.997 49.8721 97.2881 49.8721 96.2351 50.925C95.1822 51.9781 95.1822 53.6871 96.2351 54.74ZM95.4523 46.5983C96.5054 47.6514 98.2144 47.6514 99.2674 46.5983C100.32 45.5452 100.32 43.8364 99.2674 42.7833C98.2143 41.7304 96.5053 41.7304 95.4523 42.7833C94.3993 43.8364 94.3993 45.5452 95.4523 46.5983ZM95.2585 38.2207C96.3116 39.2736 98.0204 39.2736 99.0735 38.2207C100.125 37.1676 100.125 35.4586 99.0735 34.4057C98.0204 33.3526 96.3116 33.3526 95.2585 34.4057C94.2054 35.4586 94.2054 37.1676 95.2585 38.2207ZM97.0158 30.5112C98.0689 31.5643 99.7779 31.5643 100.831 30.5112C101.883 29.4582 101.883 27.7493 100.831 26.6963C99.7778 25.6432 98.0688 25.6432 97.0158 26.6963C95.9629 27.7493 95.9629 29.4582 97.0158 30.5112ZM98.0565 22.183C100.006 24.1333 103.168 24.1333 105.118 22.183C107.069 20.2337 107.069 17.0716 105.118 15.1213C103.168 13.1709 100.006 13.1709 98.0565 15.1213C96.1062 17.0715 96.1062 20.2337 98.0565 22.183ZM90.9927 15.1203C92.0458 16.1732 93.7548 16.1732 94.8077 15.1203C95.8607 14.0672 95.8607 12.3582 94.8077 11.3052C93.7546 10.2522 92.0457 10.2522 90.9927 11.3052C89.9398 12.3582 89.9398 14.0672 90.9927 15.1203ZM84.4168 11.467C85.4699 12.5201 87.1787 12.5201 88.2318 11.467C89.2849 10.4141 89.2849 8.70509 88.2318 7.652C87.1787 6.59907 85.4699 6.59907 84.4168 7.652C83.3637 8.70509 83.3637 10.4141 84.4168 11.467Z" fill="#E6E7E8"/>
</g>
<defs>
<clipPath id="clip0_1004_13593">
<rect width="516" height="415.737" fill="white"/>
</clipPath>
</defs>
</svg>
