<svg width="20" height="9" viewBox="0 0 20 9" fill="none" xmlns="http://www.w3.org/2000/svg">
<path d="M1 5.1C0.668629 5.1 0.4 4.83137 0.4 4.5C0.4 4.16863 0.668629 3.9 1 3.9L1 5.1ZM19.3741 4.07573C19.6084 4.31005 19.6084 4.68995 19.3741 4.92426L15.5557 8.74264C15.3214 8.97695 14.9415 8.97695 14.7072 8.74264C14.4729 8.50832 14.4729 8.12843 14.7072 7.89411L18.1013 4.5L14.7072 1.10589C14.4729 0.871571 14.4729 0.491673 14.7072 0.257358C14.9415 0.0230432 15.3214 0.0230432 15.5557 0.257358L19.3741 4.07573ZM1 3.9L18.9498 3.9L18.9498 5.1L1 5.1L1 3.9Z" fill="white"/>
</svg>
