<svg width="20" height="9" viewBox="0 0 20 9" fill="none" xmlns="http://www.w3.org/2000/svg">
<path d="M1.44678 5.1C1.11541 5.1 0.846777 4.83137 0.846777 4.5C0.846777 4.16863 1.11541 3.9 1.44678 3.9L1.44678 5.1ZM19.8209 4.07573C20.0552 4.31005 20.0552 4.68995 19.8209 4.92426L16.0025 8.74264C15.7682 8.97695 15.3883 8.97695 15.154 8.74264C14.9196 8.50832 14.9196 8.12843 15.154 7.89411L18.5481 4.5L15.154 1.10589C14.9196 0.871571 14.9196 0.491673 15.154 0.257358C15.3883 0.0230432 15.7682 0.0230432 16.0025 0.257358L19.8209 4.07573ZM1.44678 3.9L19.3966 3.9L19.3966 5.1L1.44678 5.1L1.44678 3.9Z" fill="#344A71"/>
</svg>
