<svg width="49" height="50" viewBox="0 0 49 50" fill="none" xmlns="http://www.w3.org/2000/svg">
<g clip-path="url(#clip0_812_3054)">
<path d="M11 30.9589V35M13.6941 21.5297V18.8357C13.6941 18.1212 13.9779 17.4359 14.4831 16.9307C14.9884 16.4254 15.6736 16.1416 16.3881 16.1416H32.5525C33.267 16.1416 33.9522 16.4254 34.4574 16.9307C34.9627 17.4359 35.2465 18.1212 35.2465 18.8357V21.5297" stroke="#344A71" stroke-width="1.5" stroke-linecap="round" stroke-linejoin="round"/>
<path d="M37.9406 30.959V35.0001M35.2465 21.5298C34.532 21.5298 33.8468 21.8136 33.3415 22.3189C32.8363 22.8241 32.5525 23.5093 32.5525 24.2238V26.9179H16.3881V24.2238C16.3881 23.5093 16.1043 22.8241 15.599 22.3189C15.0938 21.8136 14.4086 21.5298 13.6941 21.5298C12.9795 21.5298 12.2943 21.8136 11.7891 22.3189C11.2838 22.8241 11 23.5093 11 24.2238V32.306H37.9406V24.2238C37.9406 23.5093 37.6567 22.8241 37.1515 22.3189C36.6463 21.8136 35.961 21.5298 35.2465 21.5298Z" stroke="#344A71" stroke-width="1.5" stroke-linecap="round" stroke-linejoin="round"/>
</g>
<defs>
<clipPath id="clip0_812_3054">
<rect width="29" height="21" fill="white" transform="translate(10 15)"/>
</clipPath>
</defs>
</svg>
