<svg width="20" height="20" viewBox="0 0 20 20" fill="none" xmlns="http://www.w3.org/2000/svg">
<g opacity="0.8">
<circle cx="10" cy="10" r="9.5" stroke="#4C4C4C"/>
<path d="M13.88 11.9601C13.2318 11.4435 12.574 11.1305 11.9338 11.6464L11.5515 11.9582C11.2718 12.1845 10.7517 13.2421 8.74101 11.0864C6.73073 8.93338 7.92702 8.59815 8.20714 8.37376L8.59153 8.06156C9.2284 7.54448 8.98806 6.89355 8.52872 6.22349L8.25153 5.81763C7.7901 5.14913 7.28763 4.7101 6.64908 5.2264L6.30405 5.50738C6.02183 5.69899 5.23296 6.32183 5.04161 7.50507C4.81131 8.92479 5.53779 10.5506 7.20221 12.3344C8.86454 14.119 10.4921 15.0154 12.0338 14.9998C13.3151 14.9869 14.0889 14.3461 14.3309 14.1132L14.6772 13.8318C15.3141 13.3159 14.9184 12.7906 14.2698 12.2727L13.88 11.9601Z" fill="#4C4C4C"/>
</g>
</svg>
