<svg width="20" height="20" viewBox="0 0 20 20" fill="none" xmlns="http://www.w3.org/2000/svg">
<g opacity="0.8">
<path d="M8.15081 3.24164C8.62081 2.84164 8.85581 2.64164 9.10081 2.52414C9.38142 2.38996 9.68852 2.32031 9.99956 2.32031C10.3106 2.32031 10.6177 2.38996 10.8983 2.52414C11.1441 2.64081 11.3791 2.84081 11.8483 3.24164C12.0358 3.40164 12.1291 3.48081 12.2291 3.54748C12.4582 3.70096 12.7153 3.80746 12.9858 3.86081C13.1033 3.88414 13.2258 3.89414 13.4708 3.91414C14.0866 3.96248 14.3941 3.98748 14.6508 4.07831C14.944 4.18177 15.2103 4.34952 15.4302 4.56928C15.6501 4.78903 15.818 5.05522 15.9216 5.34831C16.0125 5.60581 16.0366 5.91331 16.0858 6.52831C16.105 6.77331 16.115 6.89581 16.1383 7.01414C16.1916 7.28414 16.2983 7.54164 16.4516 7.76998C16.5183 7.86998 16.5983 7.96331 16.7575 8.15081C17.1575 8.62081 17.3583 8.85581 17.4758 9.10081C17.61 9.38142 17.6796 9.68852 17.6796 9.99956C17.6796 10.3106 17.61 10.6177 17.4758 10.8983C17.3591 11.1433 17.1583 11.3783 16.7575 11.8483C16.6485 11.9695 16.5464 12.0966 16.4516 12.2291C16.2982 12.4579 16.1917 12.7148 16.1383 12.985C16.115 13.1033 16.105 13.2258 16.0858 13.4708C16.0366 14.0858 16.0125 14.3941 15.9216 14.6508C15.818 14.9439 15.6501 15.2101 15.4302 15.4298C15.2103 15.6496 14.944 15.8174 14.6508 15.9208C14.3941 16.0125 14.0866 16.0366 13.4708 16.085C13.2258 16.105 13.1041 16.115 12.9858 16.1383C12.7153 16.1917 12.4582 16.2982 12.2291 16.4516C12.0969 16.5464 11.97 16.6485 11.8491 16.7575C11.3791 17.1575 11.1441 17.3575 10.8991 17.475C10.6185 17.6092 10.3114 17.6788 10.0004 17.6788C9.68935 17.6788 9.38225 17.6092 9.10164 17.475C8.85581 17.3583 8.62081 17.1583 8.15164 16.7575C8.03048 16.6485 7.90334 16.5464 7.77081 16.4516C7.5418 16.2982 7.28461 16.1917 7.01414 16.1383C6.85359 16.1116 6.69167 16.0938 6.52914 16.085C5.91331 16.0366 5.60581 16.0116 5.34914 15.9208C5.05598 15.8174 4.78969 15.6496 4.56979 15.4298C4.34989 15.2101 4.18196 14.9439 4.07831 14.6508C3.98748 14.3941 3.96331 14.0858 3.91414 13.4708C3.90582 13.308 3.88829 13.1458 3.86164 12.985C3.80819 12.7148 3.70169 12.4579 3.54831 12.2291C3.48164 12.1291 3.40164 12.0358 3.24248 11.8483C2.84248 11.3783 2.64164 11.1433 2.52414 10.8983C2.38996 10.6177 2.32031 10.3106 2.32031 9.99956C2.32031 9.68852 2.38996 9.38142 2.52414 9.10081C2.64164 8.85581 2.84164 8.62081 3.24248 8.15081C3.40164 7.96331 3.48164 7.86998 3.54831 7.76998C3.70169 7.54122 3.80819 7.28432 3.86164 7.01414C3.88498 6.89581 3.89498 6.77331 3.91414 6.52831C3.96331 5.91331 3.98748 5.60581 4.07831 5.34831C4.18205 5.05513 4.3501 4.78889 4.57015 4.56913C4.7902 4.34937 5.05666 4.18166 5.34998 4.07831C5.60664 3.98748 5.91414 3.96248 6.52998 3.91414C6.77498 3.89414 6.89664 3.88414 7.01498 3.86081C7.28545 3.80746 7.54264 3.70096 7.77164 3.54748C7.87164 3.48081 7.96414 3.40164 8.15081 3.24164Z" stroke="#4C4C4C" stroke-width="1.5"/>
<path d="M7.5 12.5L12.5 7.5" stroke="#4C4C4C" stroke-width="1.5" stroke-linecap="round"/>
<path d="M12.9163 12.0835C12.9163 12.3045 12.8285 12.5165 12.6723 12.6728C12.516 12.829 12.304 12.9168 12.083 12.9168C11.862 12.9168 11.65 12.829 11.4938 12.6728C11.3375 12.5165 11.2497 12.3045 11.2497 12.0835C11.2497 11.8625 11.3375 11.6505 11.4938 11.4942C11.65 11.338 11.862 11.2502 12.083 11.2502C12.304 11.2502 12.516 11.338 12.6723 11.4942C12.8285 11.6505 12.9163 11.8625 12.9163 12.0835ZM8.74967 7.91683C8.74967 8.13784 8.66188 8.3498 8.5056 8.50609C8.34932 8.66237 8.13735 8.75016 7.91634 8.75016C7.69533 8.75016 7.48337 8.66237 7.32709 8.50609C7.17081 8.3498 7.08301 8.13784 7.08301 7.91683C7.08301 7.69582 7.17081 7.48385 7.32709 7.32757C7.48337 7.17129 7.69533 7.0835 7.91634 7.0835C8.13735 7.0835 8.34932 7.17129 8.5056 7.32757C8.66188 7.48385 8.74967 7.69582 8.74967 7.91683Z" fill="black"/>
</g>
</svg>
