<svg width="38" height="37" viewBox="0 0 38 37" fill="none" xmlns="http://www.w3.org/2000/svg">
<g clip-path="url(#clip0_812_3074)">
<path d="M4.77134 4.71801L6.79201 7.30305H6.94835L4.77134 4.71801ZM4.77134 4.71801C4.59767 4.49586 4.51937 4.21381 4.55366 3.93393C4.58795 3.65404 4.73202 3.39924 4.95417 3.22557C5.17633 3.05191 5.45837 2.97361 5.73826 3.00789C6.01815 3.04218 6.27295 3.18625 6.44662 3.40841L4.77134 4.71801ZM24.6348 15.37L24.4933 15.3148L24.4022 15.4362L17.159 25.0861L17.1189 25.1394V25.2061V30.874V31.074H17.3189H20.5079C20.7368 31.074 20.9563 31.1649 21.1181 31.3268C21.28 31.4886 21.3709 31.7081 21.3709 31.937C21.3709 32.1659 21.28 32.3854 21.1181 32.5472C20.9563 32.7091 20.7368 32.8 20.5079 32.8H12.0039C11.7751 32.8 11.5556 32.7091 11.3937 32.5472C11.2319 32.3854 11.1409 32.1659 11.1409 31.937C11.1409 31.7081 11.2319 31.4886 11.3937 31.3268C11.5556 31.1649 11.7751 31.074 12.0039 31.074H15.1929H15.3929V30.874V25.2061V25.1394L15.3529 25.0861L4.0852 10.0767C4.08518 10.0767 4.08516 10.0766 4.08514 10.0766C3.83514 9.74324 3.7 9.33778 3.7 8.92109V8.56605C3.7 8.33717 3.79092 8.11766 3.95276 7.95582C4.11461 7.79398 4.33411 7.70305 4.56299 7.70305H6.94835H7.35854L7.10592 7.37988L4.92891 4.59484L4.92891 4.59484C4.78791 4.41447 4.72434 4.18548 4.75218 3.95825C4.78002 3.73101 4.89698 3.52414 5.07735 3.38314C5.25772 3.24214 5.4867 3.17857 5.71394 3.20641C5.94118 3.23425 6.14805 3.35122 6.28905 3.53158L9.48647 7.62615L9.54652 7.70305H9.6441H20.8629H21.0047L21.0516 7.5693C21.4759 6.36074 22.2652 5.31386 23.3103 4.57343C24.3555 3.83302 25.6048 3.43563 26.8856 3.4362C27.7934 3.43713 28.6899 3.6381 29.5112 4.02482C30.3325 4.41154 31.0584 4.97451 31.6375 5.67367C32.2165 6.37283 32.6343 7.191 32.8612 8.06998C33.0881 8.94895 33.1185 9.86713 32.9503 10.7592C32.782 11.6513 32.4192 12.4953 31.8877 13.2312C31.3562 13.9671 30.6691 14.5769 29.8752 15.0171C29.0813 15.4573 28.2001 15.7172 27.2944 15.7782C26.3886 15.8391 25.4806 15.6998 24.6348 15.37ZM24.7557 5.70554C24.0654 6.08129 23.4876 6.63271 23.08 7.30305H22.993V7.50305V7.50518V8.2579L23.3102 7.70305H27.9488C28.1777 7.70305 28.3972 7.79398 28.5591 7.95582C28.7209 8.11766 28.8118 8.33717 28.8118 8.56605V8.91896C28.8118 9.33569 28.6767 9.74117 28.4266 10.0746L25.7543 13.6355L25.5705 13.8805L25.8686 13.9503C26.6726 14.1387 27.5131 14.0997 28.2963 13.8378C29.0794 13.5759 29.7742 13.1014 30.3031 12.4672C30.832 11.8331 31.1741 11.0643 31.2912 10.2469C31.4083 9.42953 31.2957 8.59567 30.9661 7.83856C30.6365 7.08146 30.1028 6.43095 29.4247 5.95974C28.7465 5.48854 27.9508 5.21522 27.1262 5.17032C26.3017 5.12543 25.4809 5.31074 24.7557 5.70554ZM11.3066 9.42904H10.8966L11.149 9.75215L15.448 15.256C15.5798 15.4366 15.6365 15.6613 15.6059 15.8829C15.5752 16.1053 15.459 16.3071 15.282 16.4452C15.1049 16.5834 14.881 16.6471 14.6577 16.6229C14.4354 16.5987 14.2311 16.4891 14.088 16.3174L8.76635 9.50591L8.70629 9.42904H8.60874H6.15748H5.75724L5.99754 9.74912L16.096 23.2002L16.2559 23.4133L16.4159 23.2002L26.5143 9.74912L26.7546 9.42904H26.3543H11.3066Z" fill="#344A71" stroke="white" stroke-width="0.4"/>
</g>
<defs>
<clipPath id="clip0_812_3074">
<rect width="37" height="37" fill="white" transform="translate(0.5)"/>
</clipPath>
</defs>
</svg>
