<svg width="21" height="20" viewBox="0 0 21 20" fill="none" xmlns="http://www.w3.org/2000/svg">
<g clip-path="url(#clip0_1004_16214)">
<path d="M15.6455 0H5.02051C2.43167 0 0.333008 2.09867 0.333008 4.6875V15.3125C0.333008 17.9013 2.43167 20 5.02051 20H15.6455C18.2343 20 20.333 17.9013 20.333 15.3125V4.6875C20.333 2.09867 18.2343 0 15.6455 0Z" fill="url(#paint0_radial_1004_16214)"/>
<path d="M15.6455 0H5.02051C2.43167 0 0.333008 2.09867 0.333008 4.6875V15.3125C0.333008 17.9013 2.43167 20 5.02051 20H15.6455C18.2343 20 20.333 17.9013 20.333 15.3125V4.6875C20.333 2.09867 18.2343 0 15.6455 0Z" fill="url(#paint1_radial_1004_16214)"/>
<path d="M10.3337 2.1875C8.21199 2.1875 7.94566 2.1968 7.11238 2.23469C6.28066 2.27281 5.71293 2.40445 5.21621 2.59766C4.7023 2.79719 4.26645 3.06414 3.83223 3.49852C3.39762 3.93281 3.13066 4.36867 2.93051 4.88234C2.73676 5.37922 2.60496 5.94719 2.56754 6.77852C2.53027 7.61188 2.52051 7.87828 2.52051 10.0001C2.52051 12.1219 2.52988 12.3873 2.5677 13.2206C2.60598 14.0523 2.73762 14.6201 2.93066 15.1168C3.13035 15.6307 3.3973 16.0666 3.83168 16.5008C4.26582 16.9354 4.70168 17.203 5.2152 17.4025C5.7123 17.5957 6.28012 17.7273 7.11168 17.7655C7.94504 17.8034 8.21113 17.8127 10.3328 17.8127C12.4547 17.8127 12.7202 17.8034 13.5535 17.7655C14.3852 17.7273 14.9536 17.5957 15.4507 17.4025C15.9643 17.203 16.3996 16.9354 16.8336 16.5008C17.2682 16.0666 17.5351 15.6307 17.7354 15.117C17.9274 14.6201 18.0593 14.0522 18.0983 13.2208C18.1357 12.3875 18.1455 12.1219 18.1455 10.0001C18.1455 7.87828 18.1357 7.61203 18.0983 6.77867C18.0593 5.94695 17.9274 5.3793 17.7354 4.88258C17.5351 4.36867 17.2682 3.93281 16.8336 3.49852C16.3991 3.06398 15.9645 2.79703 15.4502 2.59773C14.9521 2.40445 14.3841 2.27273 13.5524 2.23469C12.719 2.1968 12.4537 2.1875 10.3313 2.1875H10.3337ZM9.63285 3.59539C9.8409 3.59508 10.073 3.59539 10.3337 3.59539C12.4197 3.59539 12.6669 3.60289 13.4907 3.64031C14.2524 3.67516 14.6658 3.80242 14.9412 3.90938C15.3058 4.05094 15.5657 4.22023 15.839 4.49375C16.1125 4.76719 16.2817 5.02758 16.4236 5.39219C16.5306 5.66719 16.658 6.08063 16.6927 6.84234C16.7301 7.66594 16.7382 7.91328 16.7382 9.99828C16.7382 12.0833 16.7301 12.3307 16.6927 13.1542C16.6579 13.9159 16.5306 14.3294 16.4236 14.6045C16.2821 14.9691 16.1125 15.2287 15.839 15.502C15.5656 15.7754 15.306 15.9446 14.9412 16.0863C14.6661 16.1937 14.2524 16.3206 13.4907 16.3555C12.6671 16.3929 12.4197 16.401 10.3337 16.401C8.24762 16.401 8.00035 16.3929 7.17684 16.3555C6.41512 16.3203 6.00168 16.193 5.72605 16.0861C5.36152 15.9445 5.10105 15.7752 4.82762 15.5018C4.55418 15.2284 4.38496 14.9686 4.24301 14.6038C4.13605 14.3287 4.00863 13.9153 3.97395 13.1536C3.93652 12.33 3.92902 12.0827 3.92902 9.99633C3.92902 7.91008 3.93652 7.66398 3.97395 6.84039C4.00879 6.07867 4.13605 5.66523 4.24301 5.38984C4.38465 5.02523 4.55418 4.76484 4.8277 4.49141C5.10113 4.21797 5.36152 4.04867 5.72613 3.9068C6.00152 3.79938 6.41512 3.67242 7.17684 3.63742C7.89754 3.60484 8.17684 3.59508 9.63285 3.59344V3.59539ZM14.504 4.89258C13.9864 4.89258 13.5665 5.31211 13.5665 5.82977C13.5665 6.34734 13.9864 6.76727 14.504 6.76727C15.0216 6.76727 15.4415 6.34734 15.4415 5.82977C15.4415 5.31219 15.0216 4.89227 14.504 4.89227V4.89258ZM10.3337 5.98797C8.11809 5.98797 6.32168 7.78438 6.32168 10.0001C6.32168 12.2158 8.11809 14.0113 10.3337 14.0113C12.5494 14.0113 14.3452 12.2158 14.3452 10.0001C14.3452 7.78445 12.5493 5.98797 10.3336 5.98797H10.3337ZM10.3337 7.39586C11.7719 7.39586 12.9379 8.56172 12.9379 10.0001C12.9379 11.4383 11.7719 12.6043 10.3337 12.6043C8.89543 12.6043 7.72957 11.4383 7.72957 10.0001C7.72957 8.56172 8.89543 7.39586 10.3337 7.39586Z" fill="white"/>
</g>
<defs>
<radialGradient id="paint0_radial_1004_16214" cx="0" cy="0" r="1" gradientUnits="userSpaceOnUse" gradientTransform="translate(5.64551 21.5404) rotate(-90) scale(19.8215 18.4355)">
<stop stop-color="#FFDD55"/>
<stop offset="0.1" stop-color="#FFDD55"/>
<stop offset="0.5" stop-color="#FF543E"/>
<stop offset="1" stop-color="#C837AB"/>
</radialGradient>
<radialGradient id="paint1_radial_1004_16214" cx="0" cy="0" r="1" gradientUnits="userSpaceOnUse" gradientTransform="translate(-3.01707 1.4407) rotate(78.681) scale(8.86031 36.5225)">
<stop stop-color="#3771C8"/>
<stop offset="0.128" stop-color="#3771C8"/>
<stop offset="1" stop-color="#6600FF" stop-opacity="0"/>
</radialGradient>
<clipPath id="clip0_1004_16214">
<rect width="21" height="20" fill="white"/>
</clipPath>
</defs>
</svg>
