<svg width="76" height="76" viewBox="0 0 76 76" fill="none" xmlns="http://www.w3.org/2000/svg">
<g filter="url(#filter0_d_812_5837)">
<circle cx="38" cy="34" r="18" fill="#F1F1F1"/>
</g>
<g clip-path="url(#clip0_812_5837)">
<path opacity="0.7" d="M38.2857 26C36.6192 26.002 35.0216 26.6648 33.8432 27.8432C32.6648 29.0216 32.002 30.6192 32 32.2857C31.998 33.6476 32.4429 34.9724 33.2663 36.0571C33.2663 36.0571 33.4377 36.2829 33.4657 36.3154L38.2857 42L43.108 36.3126C43.1331 36.2823 43.3052 36.0571 43.3052 36.0571L43.3057 36.0554C44.1288 34.9712 44.5734 33.6469 44.5714 32.2857C44.5695 30.6192 43.9066 29.0216 42.7282 27.8432C41.5498 26.6648 39.9522 26.002 38.2857 26ZM38.2857 34.5714C37.8336 34.5714 37.3917 34.4374 37.0158 34.1862C36.64 33.9351 36.347 33.5781 36.174 33.1604C36.001 32.7428 35.9557 32.2832 36.0439 31.8398C36.1321 31.3964 36.3498 30.9891 36.6695 30.6695C36.9891 30.3498 37.3964 30.1321 37.8398 30.0439C38.2832 29.9557 38.7428 30.001 39.1604 30.174C39.5781 30.347 39.9351 30.64 40.1862 31.0158C40.4374 31.3917 40.5714 31.8336 40.5714 32.2857C40.5707 32.8917 40.3296 33.4726 39.9011 33.9011C39.4726 34.3296 38.8917 34.5707 38.2857 34.5714Z" fill="#4C4C4C"/>
</g>
<defs>
<filter id="filter0_d_812_5837" x="0" y="0" width="76" height="76" filterUnits="userSpaceOnUse" color-interpolation-filters="sRGB">
<feFlood flood-opacity="0" result="BackgroundImageFix"/>
<feColorMatrix in="SourceAlpha" type="matrix" values="0 0 0 0 0 0 0 0 0 0 0 0 0 0 0 0 0 0 127 0" result="hardAlpha"/>
<feOffset dy="4"/>
<feGaussianBlur stdDeviation="10"/>
<feComposite in2="hardAlpha" operator="out"/>
<feColorMatrix type="matrix" values="0 0 0 0 0.0470588 0 0 0 0 0.219608 0 0 0 0 0.388235 0 0 0 0.04 0"/>
<feBlend mode="normal" in2="BackgroundImageFix" result="effect1_dropShadow_812_5837"/>
<feBlend mode="normal" in="SourceGraphic" in2="effect1_dropShadow_812_5837" result="shape"/>
</filter>
<clipPath id="clip0_812_5837">
<rect width="13" height="16" fill="white" transform="translate(32 26)"/>
</clipPath>
</defs>
</svg>
