<svg width="40" height="40" viewBox="0 0 40 40" fill="none" xmlns="http://www.w3.org/2000/svg">
<path d="M27 28.3333C27 29.2538 26.2538 30 25.3333 30H8.66667C7.74619 30 7 29.2538 7 28.3333C7 27.4129 7.74619 26.6667 8.66667 26.6667H25.3333C26.2538 26.6667 27 27.4129 27 28.3333ZM37 20C37 20.9205 36.2538 21.6667 35.3333 21.6667H8.66667C7.74619 21.6667 7 20.9205 7 20C7 19.0795 7.74619 18.3333 8.66667 18.3333H35.3333C36.2538 18.3333 37 19.0795 37 20ZM27 11.6667C27 12.5871 26.2538 13.3333 25.3333 13.3333H8.66667C7.74619 13.3333 7 12.5871 7 11.6667C7 10.7462 7.74619 10 8.66667 10H25.3333C26.2538 10 27 10.7462 27 11.6667Z" fill="white"/>
</svg>
