<svg width="49" height="50" viewBox="0 0 49 50" fill="none" xmlns="http://www.w3.org/2000/svg">
<path d="M27.75 24.25C25.125 27.073 22.5 34 22.5 34C22.5 34 18.75 24.25 15 22" stroke="#344A71" stroke-width="1.5" stroke-linecap="round" stroke-linejoin="round"/>
<path d="M33.0239 18.595L33.4679 23.215C33.7559 26.212 31.5089 28.8805 28.5119 29.17C25.5719 29.452 22.9079 27.3025 22.6244 24.3625C22.557 23.6632 22.628 22.9575 22.8333 22.2856C23.0386 21.6137 23.3743 20.9889 23.8211 20.4468C24.268 19.9046 24.8173 19.4558 25.4376 19.126C26.0579 18.7962 26.7371 18.5918 27.4364 18.5245L32.3624 18.0505C32.5221 18.0355 32.6812 18.0843 32.805 18.1864C32.9287 18.2885 33.0069 18.4354 33.0224 18.595" stroke="#344A71" stroke-width="1.5" stroke-linecap="round" stroke-linejoin="round"/>
<path d="M24 40C32.2845 40 39 33.2845 39 25C39 16.7155 32.2845 10 24 10C15.7155 10 9 16.7155 9 25C9 33.2845 15.7155 40 24 40Z" stroke="#344A71" stroke-width="1.5" stroke-linecap="round" stroke-linejoin="round"/>
</svg>
