<svg width="76" height="76" viewBox="0 0 76 76" fill="none" xmlns="http://www.w3.org/2000/svg">
<g filter="url(#filter0_d_812_5825)">
<circle cx="38" cy="34" r="18" fill="#F1F1F1"/>
</g>
<path opacity="0.7" d="M37.9998 26C42.4182 26 45.9998 29.5816 45.9998 34C45.9998 38.4184 42.4182 42 37.9998 42C36.586 42.0023 35.1971 41.6281 33.9758 40.916L30.003 42L31.0846 38.0256C30.3718 36.8039 29.9974 35.4144 29.9998 34C29.9998 29.5816 33.5814 26 37.9998 26ZM35.2734 30.24L35.1134 30.2464C35.0098 30.2527 34.9085 30.2799 34.8158 30.3264C34.729 30.3755 34.6498 30.437 34.5806 30.5088C34.4846 30.5992 34.4302 30.6776 34.3718 30.7536C34.0759 31.1383 33.9165 31.6106 33.919 32.096C33.9206 32.488 34.023 32.8696 34.183 33.2264C34.5102 33.948 35.0486 34.712 35.759 35.42C35.9302 35.5904 36.0982 35.7616 36.279 35.9208C37.1617 36.698 38.2136 37.2584 39.351 37.5576L39.8054 37.6272C39.9534 37.6352 40.1014 37.624 40.2502 37.6168C40.4832 37.6048 40.7107 37.5417 40.9166 37.432C41.0213 37.378 41.1236 37.3193 41.223 37.256C41.223 37.256 41.2574 37.2336 41.323 37.184C41.431 37.104 41.4974 37.0472 41.587 36.9536C41.6534 36.8848 41.711 36.804 41.755 36.712C41.8174 36.5816 41.8798 36.3328 41.9054 36.1256C41.9246 35.9672 41.919 35.8808 41.9166 35.8272C41.9134 35.7416 41.8422 35.6528 41.7646 35.6152L41.299 35.4064C41.299 35.4064 40.603 35.1032 40.1774 34.9096C40.1328 34.8901 40.0851 34.879 40.0366 34.8768C39.9818 34.8712 39.9265 34.8773 39.8744 34.8949C39.8222 34.9124 39.7744 34.9409 39.7342 34.9784C39.7302 34.9768 39.6766 35.0224 39.0982 35.7232C39.065 35.7678 39.0192 35.8015 38.9668 35.82C38.9144 35.8386 38.8576 35.8411 38.8038 35.8272C38.7516 35.8132 38.7006 35.7956 38.651 35.7744C38.5518 35.7328 38.5174 35.7168 38.4494 35.688C37.9902 35.4876 37.5651 35.2169 37.1894 34.8856C37.0886 34.7976 36.995 34.7016 36.899 34.6088C36.5842 34.3074 36.3099 33.9664 36.083 33.5944L36.0358 33.5184C36.0019 33.4673 35.9745 33.4122 35.9542 33.3544C35.9238 33.2368 36.003 33.1424 36.003 33.1424C36.003 33.1424 36.1974 32.9296 36.2878 32.8144C36.3758 32.7024 36.4502 32.5936 36.4982 32.516C36.5926 32.364 36.6222 32.208 36.5726 32.0872C36.3486 31.54 36.1166 30.9952 35.8782 30.4544C35.831 30.3472 35.691 30.2704 35.5638 30.2552C35.5206 30.2504 35.4774 30.2456 35.4342 30.2424C35.3267 30.2371 35.2191 30.2381 35.1118 30.2456L35.2734 30.24Z" fill="#4C4C4C"/>
<defs>
<filter id="filter0_d_812_5825" x="0" y="0" width="76" height="76" filterUnits="userSpaceOnUse" color-interpolation-filters="sRGB">
<feFlood flood-opacity="0" result="BackgroundImageFix"/>
<feColorMatrix in="SourceAlpha" type="matrix" values="0 0 0 0 0 0 0 0 0 0 0 0 0 0 0 0 0 0 127 0" result="hardAlpha"/>
<feOffset dy="4"/>
<feGaussianBlur stdDeviation="10"/>
<feComposite in2="hardAlpha" operator="out"/>
<feColorMatrix type="matrix" values="0 0 0 0 0.0470588 0 0 0 0 0.219608 0 0 0 0 0.388235 0 0 0 0.04 0"/>
<feBlend mode="normal" in2="BackgroundImageFix" result="effect1_dropShadow_812_5825"/>
<feBlend mode="normal" in="SourceGraphic" in2="effect1_dropShadow_812_5825" result="shape"/>
</filter>
</defs>
</svg>
