<svg width="19" height="14" viewBox="0 0 19 14" fill="none" xmlns="http://www.w3.org/2000/svg">
<g clip-path="url(#clip0_1004_16219)">
<path d="M18.2758 2.6599C18.0691 1.88182 17.4603 1.26897 16.6871 1.06096C15.2859 0.683106 9.66695 0.683105 9.66695 0.683105C9.66695 0.683105 4.04801 0.683106 2.64668 1.061C1.87359 1.269 1.26473 1.88182 1.05809 2.65994C0.682617 4.07029 0.682617 7.01299 0.682617 7.01299C0.682617 7.01299 0.682617 9.95572 1.05809 11.366C1.26473 12.1442 1.87359 12.7315 2.64668 12.9395C4.04801 13.3174 9.66695 13.3174 9.66695 13.3174C9.66695 13.3174 15.2859 13.3174 16.6871 12.9395C17.4603 12.7314 18.0691 12.1441 18.2758 11.366C18.6513 9.95568 18.6513 7.01295 18.6513 7.01295C18.6513 7.01295 18.6513 4.07029 18.2758 2.6599Z" fill="#FF0000"/>
<path d="M7.8291 9.68478V4.34131L12.5254 7.01311L7.8291 9.68478Z" fill="white"/>
</g>
<defs>
<clipPath id="clip0_1004_16219">
<rect width="19" height="14" fill="white"/>
</clipPath>
</defs>
</svg>
